<svg width="81" height="81" viewBox="0 0 81 81" fill="none" xmlns="http://www.w3.org/2000/svg">
<path d="M73.907 57.1054C73.9056 61.656 72.3501 66.0696 69.4981 69.6156C66.6462 73.1617 62.6688 75.6274 58.2244 76.6047L56.1014 70.2358C58.0455 69.9156 59.8943 69.1682 61.5146 68.0473C63.135 66.9264 64.4865 65.46 65.4717 63.7538H57.2694C55.5044 63.7538 53.8116 63.0526 52.5635 61.8046C51.3155 60.5565 50.6143 58.8638 50.6143 57.0987V43.7886C50.6143 42.0236 51.3155 40.3308 52.5635 39.0828C53.8116 37.8347 55.5044 37.1336 57.2694 37.1336H67.0457C66.2336 30.7011 63.1023 24.786 58.2391 20.4982C53.376 16.2103 47.1153 13.8444 40.6317 13.8444C34.1482 13.8444 27.8875 16.2103 23.0244 20.4982C18.1612 24.786 15.0298 30.7011 14.2178 37.1336H23.9941C25.7591 37.1336 27.4519 37.8347 28.6999 39.0828C29.948 40.3308 30.6492 42.0236 30.6492 43.7886V57.0987C30.6492 58.8638 29.948 60.5565 28.6999 61.8046C27.4519 63.0526 25.7591 63.7538 23.9941 63.7538H14.0115C12.2465 63.7538 10.5537 63.0526 9.30567 61.8046C8.0576 60.5565 7.35645 58.8638 7.35645 57.0987V40.4611C7.35645 22.0831 22.2538 7.18579 40.6317 7.18579C59.0097 7.18579 73.907 22.0831 73.907 40.4611V57.1054Z" fill="#E02B45"/>
</svg>
