<svg width="78" height="78" viewBox="0 0 78 78" fill="none" xmlns="http://www.w3.org/2000/svg">
<path d="M48.3603 48.5427V53.3508H53.1684V48.5427H48.3603ZM20.4155 5.79843L8.39514 15.4147C7.59699 16.0494 7.49121 17.1456 7.49121 18.1072V26.9061C7.49121 29.6131 8.38552 32.1085 9.89527 34.1183V70.1793C9.89527 70.8169 10.1486 71.4283 10.5994 71.8792C11.0503 72.33 11.6617 72.5833 12.2993 72.5833H19.5115V46.1386C19.5115 45.501 19.7648 44.8895 20.2157 44.4387C20.6665 43.9878 21.278 43.7346 21.9156 43.7346H36.34C36.9776 43.7346 37.5891 43.9878 38.0399 44.4387C38.4908 44.8895 38.744 45.501 38.744 46.1386V72.5833H65.1887C65.8263 72.5833 66.4378 72.33 66.8887 71.8792C67.3395 71.4283 67.5928 70.8169 67.5928 70.1793V34.1183C69.1026 32.1085 69.9969 29.6131 69.9969 26.9061V18.088C69.9969 17.1264 69.8911 16.0494 69.0929 15.4147L57.0726 5.79843C56.6471 5.45702 56.1181 5.2705 55.5725 5.26953H21.9156C21.37 5.2705 20.841 5.45702 20.4155 5.79843ZM12.2993 26.9061V19.6939H26.7237V26.9061C26.7237 28.8189 25.9639 30.6533 24.6113 32.0059C23.2588 33.3584 21.4243 34.1183 19.5115 34.1183C17.5987 34.1183 15.7643 33.3584 14.4117 32.0059C13.0592 30.6533 12.2993 28.8189 12.2993 26.9061ZM31.5318 26.9061V19.6939H45.9562V26.9061C45.9562 28.8189 45.1964 30.6533 43.8438 32.0059C42.4913 33.3584 40.6568 34.1183 38.744 34.1183C36.8312 34.1183 34.9968 33.3584 33.6442 32.0059C32.2917 30.6533 31.5318 28.8189 31.5318 26.9061ZM50.7644 26.9061V19.6939H65.1887V26.9061C65.1887 28.8189 64.4289 30.6533 63.0763 32.0059C61.7238 33.3584 59.8893 34.1183 57.9765 34.1183C56.0638 34.1183 54.2293 33.3584 52.8768 32.0059C51.5242 30.6533 50.7644 28.8189 50.7644 26.9061ZM16.7469 14.8858L22.757 10.0777H29.272L27.469 14.8858H16.7469ZM32.5993 14.8858L34.4023 10.0777H43.0233L44.6244 14.8858H32.5993ZM48.091 10.0777H54.7263L60.7364 14.8858H49.6921L48.091 10.0777ZM43.5522 46.1386C43.5522 45.501 43.8055 44.8895 44.2563 44.4387C44.7071 43.9878 45.3186 43.7346 45.9562 43.7346H55.5725C56.2101 43.7346 56.8216 43.9878 57.2724 44.4387C57.7233 44.8895 57.9765 45.501 57.9765 46.1386V55.7549C57.9765 56.3925 57.7233 57.004 57.2724 57.4548C56.8216 57.9057 56.2101 58.1589 55.5725 58.1589H45.9562C45.3186 58.1589 44.7071 57.9057 44.2563 57.4548C43.8055 57.004 43.5522 56.3925 43.5522 55.7549V46.1386ZM24.3197 72.5833H33.9359V48.5427H24.3197V72.5833Z" fill="#E02B45"/>
</svg>
