<svg width="155" height="48" viewBox="0 0 155 48" fill="none" xmlns="http://www.w3.org/2000/svg">
<circle cx="24" cy="24" r="24" fill="url(#paint0_linear_150_792)"/>
<path d="M31.7887 26.625L30.7125 22.875H28.125V26.25C28.125 26.7473 27.9275 27.2242 27.5758 27.5758C27.2242 27.9275 26.7473 28.125 26.25 28.125H25.5V27.375C25.4993 27.006 25.4208 26.6412 25.2696 26.3046C25.1184 25.9679 24.8979 25.6669 24.6225 25.4213C24.9161 25.3202 25.1642 25.1181 25.3225 24.8511C25.4808 24.584 25.539 24.2694 25.4867 23.9633C25.4344 23.6573 25.2751 23.3798 25.0371 23.1805C24.7991 22.9811 24.498 22.8728 24.1875 22.875H18.9375C18.6459 22.8742 18.3624 22.9707 18.132 23.1493C17.9015 23.3279 17.7373 23.5783 17.6654 23.8609C17.5935 24.1434 17.6179 24.4419 17.7349 24.7089C17.852 24.976 18.0548 25.1963 18.3112 25.335C17.537 25.7525 16.8902 26.3717 16.4392 27.1269C15.9883 27.8822 15.7502 28.7454 15.75 29.625C15.75 29.7245 15.7895 29.8198 15.8598 29.8902C15.9302 29.9605 16.0255 30 16.125 30H16.875C16.875 30.8951 17.2306 31.7535 17.8635 32.3865C18.4964 33.0194 19.3549 33.375 20.25 33.375C21.1451 33.375 22.0035 33.0194 22.6365 32.3865C23.2694 31.7535 23.625 30.8951 23.625 30H28.125C28.1274 30.6547 28.3202 31.2945 28.6798 31.8416C29.0394 32.3886 29.5504 32.8193 30.1504 33.0811C30.7505 33.3428 31.4138 33.4245 32.0594 33.3159C32.705 33.2074 33.3051 32.9135 33.7866 32.4699C34.2682 32.0264 34.6103 31.4523 34.7713 30.8178C34.9323 30.1832 34.9053 29.5155 34.6936 28.896C34.4818 28.2765 34.0945 27.732 33.5787 27.3288C33.0629 26.9255 32.441 26.681 31.7887 26.625ZM20.25 31.5C19.9533 31.5 19.6633 31.412 19.4166 31.2472C19.17 31.0824 18.9777 30.8481 18.8642 30.574C18.7506 30.2999 18.7209 29.9983 18.7788 29.7074C18.8367 29.4164 18.9796 29.1491 19.1893 28.9393C19.3991 28.7296 19.6664 28.5867 19.9574 28.5288C20.2483 28.4709 20.5499 28.5006 20.824 28.6142C21.0981 28.7277 21.3324 28.92 21.4972 29.1666C21.662 29.4133 21.75 29.7033 21.75 30C21.75 30.3978 21.592 30.7794 21.3107 31.0607C21.0294 31.342 20.6478 31.5 20.25 31.5ZM31.5 31.5C31.2033 31.5 30.9133 31.412 30.6666 31.2472C30.42 31.0824 30.2277 30.8481 30.1142 30.574C30.0006 30.2999 29.9709 29.9983 30.0288 29.7074C30.0867 29.4164 30.2296 29.1491 30.4393 28.9393C30.6491 28.7296 30.9164 28.5867 31.2074 28.5288C31.4983 28.4709 31.7999 28.5006 32.074 28.6142C32.3481 28.7277 32.5824 28.92 32.7472 29.1666C32.912 29.4133 33 29.7033 33 30C33 30.3978 32.842 30.7794 32.5607 31.0607C32.2794 31.342 31.8978 31.5 31.5 31.5ZM28.125 18.75V21.75C28.125 21.8495 28.1645 21.9448 28.2348 22.0152C28.3052 22.0855 28.4005 22.125 28.5 22.125H31.125C31.4234 22.125 31.7095 22.0065 31.9205 21.7955C32.1315 21.5845 32.25 21.2984 32.25 21V19.5C32.25 19.2016 32.1315 18.9155 31.9205 18.7045C31.7095 18.4935 31.4234 18.375 31.125 18.375H28.5C28.4005 18.375 28.3052 18.4145 28.2348 18.4848C28.1645 18.5552 28.125 18.6505 28.125 18.75ZM23.625 21.75V15.75C23.625 15.6505 23.5855 15.5552 23.5152 15.4848C23.4448 15.4145 23.3495 15.375 23.25 15.375H13.5C13.4005 15.375 13.3052 15.4145 13.2348 15.4848C13.1645 15.5552 13.125 15.6505 13.125 15.75V21.75C13.125 21.8495 13.1645 21.9448 13.2348 22.0152C13.3052 22.0855 13.4005 22.125 13.5 22.125H23.25C23.3495 22.125 23.4448 22.0855 23.5152 22.0152C23.5855 21.9448 23.625 21.8495 23.625 21.75ZM18 17.2725V16.875C18 16.7755 18.0395 16.6802 18.1098 16.6098C18.1802 16.5395 18.2755 16.5 18.375 16.5C18.4745 16.5 18.5698 16.5395 18.6402 16.6098C18.7105 16.6802 18.75 16.7755 18.75 16.875V17.2725C19.3476 17.3444 19.9094 17.5958 20.3613 17.9934C20.8132 18.3911 21.1339 18.9164 21.2812 19.5H15.4688C15.6161 18.9164 15.9368 18.3911 16.3887 17.9934C16.8406 17.5958 17.4024 17.3444 18 17.2725ZM22.125 21H14.625V20.25H22.125V21Z" fill="white"/>
<path d="M70.4773 19H65.1009V4.45455H70.4702C71.9522 4.45455 73.2282 4.74574 74.2983 5.32812C75.3731 5.90578 76.2017 6.73911 76.7841 7.82812C77.3665 8.91241 77.6577 10.2098 77.6577 11.7202C77.6577 13.2353 77.3665 14.5374 76.7841 15.6264C76.2064 16.7154 75.3802 17.5511 74.3054 18.1335C73.2306 18.7112 71.9545 19 70.4773 19ZM68.6165 16.0028H70.3423C71.1567 16.0028 71.8456 15.8655 72.4091 15.5909C72.9773 15.3116 73.4058 14.8594 73.6946 14.2344C73.9882 13.6046 74.1349 12.7666 74.1349 11.7202C74.1349 10.6738 73.9882 9.84044 73.6946 9.22017C73.401 8.59517 72.9678 8.14536 72.3949 7.87074C71.8267 7.59138 71.1259 7.4517 70.2926 7.4517H68.6165V16.0028ZM79.7102 19V8.09091H83.1832V19H79.7102ZM81.4503 6.8196C80.9626 6.8196 80.5436 6.65862 80.1932 6.33665C79.8428 6.00994 79.6676 5.61695 79.6676 5.15767C79.6676 4.70312 79.8428 4.31487 80.1932 3.9929C80.5436 3.66619 80.9626 3.50284 81.4503 3.50284C81.9427 3.50284 82.3617 3.66619 82.7074 3.9929C83.0578 4.31487 83.233 4.70312 83.233 5.15767C83.233 5.61695 83.0578 6.00994 82.7074 6.33665C82.3617 6.65862 81.9427 6.8196 81.4503 6.8196ZM94.918 11.4219L91.729 11.5071C91.6959 11.2798 91.6059 11.0786 91.4592 10.9034C91.3124 10.7235 91.1206 10.5838 90.8839 10.4844C90.6519 10.3802 90.382 10.3281 90.0742 10.3281C89.6718 10.3281 89.3285 10.4086 89.0444 10.5696C88.765 10.7306 88.6277 10.9484 88.6325 11.223C88.6277 11.4361 88.7129 11.6207 88.8881 11.777C89.0681 11.9332 89.3877 12.0587 89.8469 12.1534L91.9492 12.5511C93.0382 12.7595 93.8479 13.1051 94.3782 13.5881C94.9132 14.071 95.1831 14.7102 95.1879 15.5057C95.1831 16.2538 94.9606 16.9048 94.5202 17.4588C94.0846 18.0128 93.488 18.4437 92.7305 18.7514C91.9729 19.0545 91.1064 19.206 90.131 19.206C88.5733 19.206 87.3446 18.8864 86.445 18.2472C85.5501 17.6032 85.0387 16.7415 84.9109 15.6619L88.3413 15.5767C88.417 15.9744 88.6135 16.2775 88.9308 16.4858C89.248 16.6941 89.6528 16.7983 90.1452 16.7983C90.5903 16.7983 90.9525 16.7154 91.2319 16.5497C91.5112 16.384 91.6533 16.1638 91.658 15.8892C91.6533 15.643 91.5444 15.4465 91.3313 15.2997C91.1183 15.1482 90.7844 15.0298 90.3299 14.9446L88.4265 14.5824C87.3327 14.3835 86.5183 14.0166 85.9833 13.4815C85.4483 12.9418 85.1831 12.2552 85.1879 11.4219C85.1831 10.6927 85.3772 10.0701 85.7702 9.55398C86.1632 9.03314 86.7219 8.63542 87.4464 8.3608C88.1708 8.08617 89.0254 7.94886 90.0103 7.94886C91.4876 7.94886 92.6523 8.259 93.5046 8.87926C94.3569 9.49479 94.828 10.3423 94.918 11.4219ZM96.8977 23.0909V8.09091H100.335V9.95881H100.442C100.584 9.62737 100.785 9.30777 101.045 9C101.311 8.69223 101.647 8.44129 102.054 8.24716C102.466 8.0483 102.958 7.94886 103.531 7.94886C104.289 7.94886 104.997 8.14773 105.655 8.54545C106.318 8.94318 106.853 9.55634 107.26 10.3849C107.667 11.2135 107.871 12.2694 107.871 13.5526C107.871 14.7884 107.674 15.8229 107.281 16.6562C106.893 17.4896 106.367 18.1146 105.705 18.5312C105.046 18.9479 104.315 19.1562 103.51 19.1562C102.961 19.1562 102.485 19.0663 102.082 18.8864C101.68 18.7064 101.341 18.4697 101.067 18.1761C100.797 17.8826 100.589 17.5677 100.442 17.2315H100.371V23.0909H96.8977ZM100.3 13.5455C100.3 14.1326 100.378 14.6439 100.534 15.0795C100.695 15.5152 100.925 15.8537 101.223 16.0952C101.526 16.3319 101.888 16.4503 102.31 16.4503C102.736 16.4503 103.098 16.3319 103.396 16.0952C103.695 15.8537 103.92 15.5152 104.071 15.0795C104.227 14.6439 104.305 14.1326 104.305 13.5455C104.305 12.9583 104.227 12.4493 104.071 12.0185C103.92 11.5876 103.695 11.2538 103.396 11.017C103.103 10.7803 102.741 10.6619 102.31 10.6619C101.884 10.6619 101.521 10.7779 101.223 11.0099C100.925 11.242 100.695 11.5734 100.534 12.0043C100.378 12.4351 100.3 12.9489 100.3 13.5455ZM112.766 19.1847C112.07 19.1847 111.452 19.0687 110.912 18.8366C110.377 18.5999 109.953 18.2448 109.641 17.7713C109.333 17.2931 109.179 16.6941 109.179 15.9744C109.179 15.3684 109.286 14.857 109.499 14.4403C109.712 14.0237 110.006 13.6851 110.38 13.4247C110.754 13.1643 111.185 12.9678 111.672 12.8352C112.16 12.6979 112.681 12.6056 113.235 12.5582C113.855 12.5014 114.355 12.4422 114.733 12.3807C115.112 12.3144 115.387 12.2221 115.557 12.1037C115.732 11.9806 115.82 11.8078 115.82 11.5852V11.5497C115.82 11.1851 115.694 10.9034 115.444 10.7045C115.193 10.5057 114.854 10.4062 114.428 10.4062C113.969 10.4062 113.599 10.5057 113.32 10.7045C113.041 10.9034 112.863 11.178 112.787 11.5284L109.584 11.4148C109.679 10.7519 109.923 10.16 110.316 9.6392C110.713 9.11364 111.258 8.7017 111.949 8.40341C112.645 8.10038 113.481 7.94886 114.456 7.94886C115.152 7.94886 115.794 8.03172 116.381 8.19744C116.968 8.35843 117.48 8.59517 117.915 8.90767C118.351 9.21544 118.687 9.59422 118.924 10.044C119.165 10.4938 119.286 11.0076 119.286 11.5852V19H116.019V17.4801H115.934C115.739 17.8494 115.491 18.1619 115.188 18.4176C114.89 18.6733 114.537 18.8651 114.13 18.9929C113.727 19.1207 113.273 19.1847 112.766 19.1847ZM113.838 16.9119C114.212 16.9119 114.549 16.8362 114.847 16.6847C115.15 16.5331 115.391 16.3248 115.571 16.0597C115.751 15.7898 115.841 15.4773 115.841 15.1222V14.0852C115.742 14.1373 115.621 14.1847 115.479 14.2273C115.342 14.2699 115.19 14.3101 115.025 14.348C114.859 14.3859 114.688 14.419 114.513 14.4474C114.338 14.4759 114.17 14.5019 114.009 14.5256C113.682 14.5777 113.403 14.6581 113.171 14.767C112.944 14.8759 112.768 15.018 112.645 15.1932C112.527 15.3636 112.468 15.5672 112.468 15.804C112.468 16.1638 112.596 16.4384 112.851 16.6278C113.112 16.8172 113.441 16.9119 113.838 16.9119ZM127.567 8.09091V10.6477H120.685V8.09091H127.567ZM122.127 5.47727H125.6V15.5696C125.6 15.7827 125.633 15.9555 125.699 16.0881C125.77 16.2159 125.872 16.3082 126.005 16.3651C126.137 16.4171 126.296 16.4432 126.48 16.4432C126.613 16.4432 126.753 16.4313 126.9 16.4077C127.051 16.3793 127.165 16.3556 127.24 16.3366L127.766 18.8438C127.6 18.8911 127.366 18.9503 127.063 19.0213C126.765 19.0923 126.407 19.1373 125.99 19.1562C125.176 19.1941 124.478 19.0994 123.895 18.8722C123.318 18.6402 122.875 18.2803 122.567 17.7926C122.264 17.3049 122.117 16.6918 122.127 15.9531V5.47727ZM134.314 19.206C133.164 19.206 132.176 18.9692 131.353 18.4957C130.533 18.0223 129.904 17.3641 129.463 16.5213C129.023 15.6738 128.803 14.6937 128.803 13.581C128.803 12.4635 129.023 11.4834 129.463 10.6406C129.908 9.79309 130.541 9.13258 131.36 8.65909C132.184 8.18561 133.166 7.94886 134.307 7.94886C135.316 7.94886 136.194 8.13116 136.942 8.49574C137.695 8.86032 138.282 9.37642 138.703 10.044C139.13 10.7069 139.355 11.4858 139.378 12.3807H136.132C136.066 11.822 135.877 11.384 135.564 11.0668C135.257 10.7495 134.854 10.5909 134.357 10.5909C133.954 10.5909 133.602 10.7045 133.299 10.9318C132.996 11.1544 132.759 11.4858 132.588 11.9261C132.423 12.3617 132.34 12.9015 132.34 13.5455C132.34 14.1894 132.423 14.7339 132.588 15.179C132.759 15.6193 132.996 15.9531 133.299 16.1804C133.602 16.4029 133.954 16.5142 134.357 16.5142C134.679 16.5142 134.963 16.4455 135.209 16.3082C135.46 16.1709 135.666 15.9697 135.827 15.7045C135.988 15.4347 136.09 15.108 136.132 14.7244H139.378C139.345 15.6241 139.12 16.41 138.703 17.0824C138.292 17.7547 137.712 18.2779 136.963 18.652C136.22 19.0213 135.337 19.206 134.314 19.206ZM144.629 12.7784V19H141.156V4.45455H144.515V10.0938H144.636C144.882 9.4214 145.284 8.89583 145.843 8.51705C146.406 8.13826 147.095 7.94886 147.91 7.94886C148.677 7.94886 149.344 8.11932 149.913 8.46023C150.481 8.7964 150.921 9.27225 151.234 9.88778C151.551 10.5033 151.707 11.223 151.702 12.0469V19H148.229V12.7287C148.234 12.1226 148.083 11.6491 147.775 11.3082C147.467 10.9673 147.034 10.7969 146.475 10.7969C146.111 10.7969 145.789 10.8774 145.509 11.0384C145.235 11.1946 145.019 11.4195 144.863 11.7131C144.711 12.0066 144.633 12.3617 144.629 12.7784ZM65.1009 43V28.4545H71.1662C72.2552 28.4545 73.1667 28.6084 73.9006 28.9162C74.6392 29.224 75.1932 29.6548 75.5625 30.2088C75.9366 30.7628 76.1236 31.4044 76.1236 32.1335C76.1236 32.6875 76.0076 33.1823 75.7756 33.6179C75.5436 34.0488 75.224 34.4062 74.8168 34.6903C74.4096 34.9744 73.9384 35.1733 73.4034 35.2869V35.429C73.9905 35.4574 74.5327 35.616 75.0298 35.9048C75.5317 36.1937 75.9342 36.5961 76.2372 37.1122C76.5402 37.6236 76.6918 38.2296 76.6918 38.9304C76.6918 39.7116 76.4929 40.41 76.0952 41.0256C75.6974 41.6364 75.1222 42.1193 74.3693 42.4744C73.6165 42.8248 72.7027 43 71.6278 43H65.1009ZM68.6165 40.1662H70.7898C71.5521 40.1662 72.1132 40.0218 72.473 39.733C72.8376 39.4441 73.0199 39.0417 73.0199 38.5256C73.0199 38.1515 72.9323 37.8295 72.7571 37.5597C72.5819 37.285 72.3333 37.0743 72.0114 36.9276C71.6894 36.776 71.3035 36.7003 70.8537 36.7003H68.6165V40.1662ZM68.6165 34.4347H70.5625C70.946 34.4347 71.2869 34.3707 71.5852 34.2429C71.8835 34.1151 72.1155 33.9304 72.2812 33.6889C72.4517 33.4474 72.5369 33.1562 72.5369 32.8153C72.5369 32.3277 72.3641 31.9441 72.0185 31.6648C71.6728 31.3854 71.2064 31.2457 70.6193 31.2457H68.6165V34.4347ZM85.4205 38.2912V32.0909H88.8864V43H85.5767V40.9688H85.4631C85.2216 41.6364 84.8097 42.1667 84.2273 42.5597C83.6496 42.9479 82.9512 43.142 82.1321 43.142C81.3887 43.142 80.7353 42.9716 80.1719 42.6307C79.6084 42.2898 79.1705 41.8139 78.858 41.2031C78.5455 40.5876 78.3868 39.8679 78.3821 39.044V32.0909H81.8551V38.3622C81.8598 38.9541 82.0161 39.4205 82.3239 39.7614C82.6316 40.1023 83.0507 40.2727 83.581 40.2727C83.9266 40.2727 84.2367 40.197 84.5114 40.0455C84.7907 39.8892 85.0109 39.6643 85.1719 39.3707C85.3376 39.0724 85.4205 38.7126 85.4205 38.2912ZM95.0813 43.1562C94.2764 43.1562 93.5449 42.9479 92.8867 42.5312C92.2286 42.1146 91.703 41.4896 91.31 40.6562C90.917 39.8229 90.7205 38.7884 90.7205 37.5526C90.7205 36.2694 90.9241 35.2135 91.3313 34.3849C91.7385 33.5563 92.2712 32.9432 92.9293 32.5455C93.5922 32.1477 94.3048 31.9489 95.0671 31.9489C95.64 31.9489 96.1301 32.0483 96.5373 32.2472C96.9445 32.4413 97.2807 32.6922 97.5458 33C97.811 33.3078 98.0122 33.6274 98.1495 33.9588H98.2205V28.4545H101.694V43H98.256V41.2315H98.1495C98.0027 41.5677 97.7944 41.8826 97.5245 42.1761C97.2546 42.4697 96.9161 42.7064 96.5089 42.8864C96.1064 43.0663 95.6306 43.1562 95.0813 43.1562ZM96.2887 40.4503C96.7101 40.4503 97.07 40.3319 97.3683 40.0952C97.6665 39.8537 97.8962 39.5152 98.0572 39.0795C98.2182 38.6439 98.2987 38.1326 98.2987 37.5455C98.2987 36.9489 98.2182 36.4351 98.0572 36.0043C97.9009 35.5734 97.6713 35.242 97.3683 35.0099C97.07 34.7779 96.7101 34.6619 96.2887 34.6619C95.8578 34.6619 95.4933 34.7803 95.195 35.017C94.8967 35.2538 94.6694 35.5876 94.5131 36.0185C94.3616 36.4493 94.2859 36.9583 94.2859 37.5455C94.2859 38.1326 94.364 38.6439 94.5202 39.0795C94.6765 39.5152 94.9014 39.8537 95.195 40.0952C95.4933 40.3319 95.8578 40.4503 96.2887 40.4503ZM107.874 43.1562C107.069 43.1562 106.338 42.9479 105.68 42.5312C105.022 42.1146 104.496 41.4896 104.103 40.6562C103.71 39.8229 103.513 38.7884 103.513 37.5526C103.513 36.2694 103.717 35.2135 104.124 34.3849C104.531 33.5563 105.064 32.9432 105.722 32.5455C106.385 32.1477 107.098 31.9489 107.86 31.9489C108.433 31.9489 108.923 32.0483 109.33 32.2472C109.737 32.4413 110.074 32.6922 110.339 33C110.604 33.3078 110.805 33.6274 110.942 33.9588H111.013V28.4545H114.487V43H111.049V41.2315H110.942C110.796 41.5677 110.587 41.8826 110.317 42.1761C110.048 42.4697 109.709 42.7064 109.302 42.8864C108.899 43.0663 108.424 43.1562 107.874 43.1562ZM109.082 40.4503C109.503 40.4503 109.863 40.3319 110.161 40.0952C110.46 39.8537 110.689 39.5152 110.85 39.0795C111.011 38.6439 111.092 38.1326 111.092 37.5455C111.092 36.9489 111.011 36.4351 110.85 36.0043C110.694 35.5734 110.464 35.242 110.161 35.0099C109.863 34.7779 109.503 34.6619 109.082 34.6619C108.651 34.6619 108.286 34.7803 107.988 35.017C107.69 35.2538 107.462 35.5876 107.306 36.0185C107.155 36.4493 107.079 36.9583 107.079 37.5455C107.079 38.1326 107.157 38.6439 107.313 39.0795C107.469 39.5152 107.694 39.8537 107.988 40.0952C108.286 40.3319 108.651 40.4503 109.082 40.4503ZM118.806 47.0909C118.39 47.0909 117.997 47.0578 117.627 46.9915C117.258 46.9299 116.941 46.8471 116.676 46.7429L117.443 44.2216C117.784 44.3352 118.092 44.4015 118.366 44.4205C118.645 44.4394 118.885 44.3944 119.083 44.2855C119.287 44.1813 119.443 43.9943 119.552 43.7244L119.687 43.3977L115.809 32.0909H119.446L121.456 39.875H121.569L123.608 32.0909H127.265L123.153 44.044C122.954 44.6406 122.672 45.1662 122.308 45.6207C121.948 46.08 121.482 46.4399 120.909 46.7003C120.341 46.9607 119.64 47.0909 118.806 47.0909Z" fill="#E02B45"/>
<defs>
<linearGradient id="paint0_linear_150_792" x1="28.5" y1="24" x2="43.5" y2="52.875" gradientUnits="userSpaceOnUse">
<stop stop-color="#E02B45"/>
<stop offset="1" stop-color="#FCC134"/>
</linearGradient>
</defs>
</svg>
