<svg width="83" height="83" viewBox="0 0 83 83" fill="none" xmlns="http://www.w3.org/2000/svg">
<path d="M41.3215 7.10156C22.4685 7.10156 7.13037 22.4397 7.13037 41.2927C7.13037 60.1457 22.4685 75.4838 41.3215 75.4838C60.1745 75.4838 75.5126 60.1457 75.5126 41.2927C75.5126 22.4397 60.1745 7.10156 41.3215 7.10156ZM13.9686 41.2927C13.9686 38.2189 14.502 35.2682 15.4422 32.509L20.8068 37.8736L27.645 44.7118V51.55L34.4833 58.3882L37.9024 61.8074V68.4097C24.4345 66.7172 13.9686 55.2153 13.9686 41.2927ZM62.9645 57.954C60.7318 56.1556 57.3469 54.9691 54.9979 54.9691V51.55C54.9979 49.7364 54.2775 47.9971 52.9951 46.7147C51.7127 45.4323 49.9733 44.7118 48.1597 44.7118H34.4833V34.4545C36.2969 34.4545 38.0362 33.734 39.3186 32.4516C40.601 31.1692 41.3215 29.4298 41.3215 27.6162V24.1971H44.7406C46.5542 24.1971 48.2935 23.4767 49.576 22.1943C50.8584 20.9118 51.5788 19.1725 51.5788 17.3589V15.9536C61.59 20.019 68.6744 29.8387 68.6744 41.2927C68.6738 47.3264 66.6649 53.1883 62.9645 57.954Z" fill="#E02B45"/>
</svg>
