<svg width="11" height="19" viewBox="0 0 11 19" fill="none" xmlns="http://www.w3.org/2000/svg">
<path d="M11 1.50015C11 1.22401 10.7761 1.00015 10.5 1.00015H8C5.37932 0.869609 3.14528 2.88025 3 5.50015V8.20015H0.5C0.223858 8.20015 0 8.42401 0 8.70015V11.3002C0 11.5763 0.223858 11.8002 0.5 11.8002H3V18.5002C3 18.7763 3.22386 19.0002 3.5 19.0002H6.5C6.77614 19.0002 7 18.7763 7 18.5002V11.8002H9.62C9.84874 11.8034 10.0505 11.6511 10.11 11.4302L10.83 8.83015C10.8703 8.68043 10.8389 8.52047 10.7449 8.39712C10.6509 8.27378 10.5051 8.20102 10.35 8.20015H7V5.50015C7.05154 4.98725 7.48452 4.59757 8 4.60015H10.5C10.7761 4.60015 11 4.3763 11 4.10015V1.50015Z" fill="white"/>
</svg>
