<svg width="24" height="24" viewBox="0 0 24 24" fill="none" xmlns="http://www.w3.org/2000/svg">
<path opacity="0.01" d="M0 0H24V24H0" fill="white"/>
<path d="M8.07982 19.9998C11.0672 20.0998 13.9681 18.9874 16.1227 16.9156C18.2773 14.8439 19.5026 11.9888 19.5198 8.9998C20.1975 8.16121 20.7007 7.19563 20.9998 6.1598C21.0454 5.99263 20.9887 5.81425 20.8549 5.70417C20.721 5.59408 20.5351 5.5728 20.3798 5.6498C19.6529 5.99973 18.7837 5.84682 18.2198 5.2698C17.5106 4.49313 16.5171 4.03676 15.4658 4.00474C14.4145 3.97271 13.395 4.36775 12.6398 5.0998C11.5988 6.108 11.1624 7.58807 11.4898 8.9998C8.13982 9.1998 5.83982 7.6098 3.99982 5.4298C3.88687 5.30189 3.70897 5.25287 3.54644 5.30488C3.38392 5.35689 3.26753 5.50008 3.24982 5.6698C2.53194 9.65196 4.36669 13.6605 7.84982 15.7198C6.70946 17.0276 5.10803 17.8445 3.37982 17.9998C3.19 18.0313 3.0412 18.18 3.00956 18.3698C2.97793 18.5596 3.07047 18.7485 3.23982 18.8398C4.74334 19.5912 6.39905 19.988 8.07982 19.9998" fill="white"/>
</svg>
