<svg width="132" height="44" viewBox="0 0 132 44" fill="none" xmlns="http://www.w3.org/2000/svg">
<circle cx="20" cy="22" r="20" fill="url(#paint0_linear_110_2004)"/>
<path d="M27.7887 24.625L26.7125 20.875H24.125V24.25C24.125 24.7473 23.9275 25.2242 23.5758 25.5758C23.2242 25.9275 22.7473 26.125 22.25 26.125H21.5V25.375C21.4993 25.006 21.4208 24.6412 21.2696 24.3046C21.1184 23.9679 20.8979 23.6669 20.6225 23.4213C20.9161 23.3202 21.1642 23.1181 21.3225 22.8511C21.4808 22.584 21.539 22.2694 21.4867 21.9633C21.4344 21.6573 21.2751 21.3798 21.0371 21.1805C20.7991 20.9811 20.498 20.8728 20.1875 20.875H14.9375C14.6459 20.8742 14.3624 20.9707 14.132 21.1493C13.9015 21.3279 13.7373 21.5783 13.6654 21.8609C13.5935 22.1434 13.6179 22.4419 13.7349 22.7089C13.852 22.976 14.0548 23.1963 14.3112 23.335C13.537 23.7525 12.8902 24.3717 12.4392 25.1269C11.9883 25.8822 11.7502 26.7454 11.75 27.625C11.75 27.7245 11.7895 27.8198 11.8598 27.8902C11.9302 27.9605 12.0255 28 12.125 28H12.875C12.875 28.8951 13.2306 29.7535 13.8635 30.3865C14.4964 31.0194 15.3549 31.375 16.25 31.375C17.1451 31.375 18.0035 31.0194 18.6365 30.3865C19.2694 29.7535 19.625 28.8951 19.625 28H24.125C24.1274 28.6547 24.3202 29.2945 24.6798 29.8416C25.0394 30.3886 25.5504 30.8193 26.1504 31.0811C26.7505 31.3428 27.4138 31.4245 28.0594 31.3159C28.705 31.2074 29.3051 30.9135 29.7866 30.4699C30.2682 30.0264 30.6103 29.4523 30.7713 28.8178C30.9323 28.1832 30.9053 27.5155 30.6936 26.896C30.4818 26.2765 30.0945 25.732 29.5787 25.3288C29.0629 24.9255 28.441 24.681 27.7887 24.625ZM16.25 29.5C15.9533 29.5 15.6633 29.412 15.4166 29.2472C15.17 29.0824 14.9777 28.8481 14.8642 28.574C14.7506 28.2999 14.7209 27.9983 14.7788 27.7074C14.8367 27.4164 14.9796 27.1491 15.1893 26.9393C15.3991 26.7296 15.6664 26.5867 15.9574 26.5288C16.2483 26.4709 16.5499 26.5006 16.824 26.6142C17.0981 26.7277 17.3324 26.92 17.4972 27.1666C17.662 27.4133 17.75 27.7033 17.75 28C17.75 28.3978 17.592 28.7794 17.3107 29.0607C17.0294 29.342 16.6478 29.5 16.25 29.5ZM27.5 29.5C27.2033 29.5 26.9133 29.412 26.6666 29.2472C26.42 29.0824 26.2277 28.8481 26.1142 28.574C26.0006 28.2999 25.9709 27.9983 26.0288 27.7074C26.0867 27.4164 26.2296 27.1491 26.4393 26.9393C26.6491 26.7296 26.9164 26.5867 27.2074 26.5288C27.4983 26.4709 27.7999 26.5006 28.074 26.6142C28.3481 26.7277 28.5824 26.92 28.7472 27.1666C28.912 27.4133 29 27.7033 29 28C29 28.3978 28.842 28.7794 28.5607 29.0607C28.2794 29.342 27.8978 29.5 27.5 29.5ZM24.125 16.75V19.75C24.125 19.8495 24.1645 19.9448 24.2348 20.0152C24.3052 20.0855 24.4005 20.125 24.5 20.125H27.125C27.4234 20.125 27.7095 20.0065 27.9205 19.7955C28.1315 19.5845 28.25 19.2984 28.25 19V17.5C28.25 17.2016 28.1315 16.9155 27.9205 16.7045C27.7095 16.4935 27.4234 16.375 27.125 16.375H24.5C24.4005 16.375 24.3052 16.4145 24.2348 16.4848C24.1645 16.5552 24.125 16.6505 24.125 16.75ZM19.625 19.75V13.75C19.625 13.6505 19.5855 13.5552 19.5152 13.4848C19.4448 13.4145 19.3495 13.375 19.25 13.375H9.5C9.40054 13.375 9.30516 13.4145 9.23483 13.4848C9.16451 13.5552 9.125 13.6505 9.125 13.75V19.75C9.125 19.8495 9.16451 19.9448 9.23483 20.0152C9.30516 20.0855 9.40054 20.125 9.5 20.125H19.25C19.3495 20.125 19.4448 20.0855 19.5152 20.0152C19.5855 19.9448 19.625 19.8495 19.625 19.75ZM14 15.2725V14.875C14 14.7755 14.0395 14.6802 14.1098 14.6098C14.1802 14.5395 14.2755 14.5 14.375 14.5C14.4745 14.5 14.5698 14.5395 14.6402 14.6098C14.7105 14.6802 14.75 14.7755 14.75 14.875V15.2725C15.3476 15.3444 15.9094 15.5958 16.3613 15.9934C16.8132 16.3911 17.1339 16.9164 17.2812 17.5H11.4688C11.6161 16.9164 11.9368 16.3911 12.3887 15.9934C12.8406 15.5958 13.4024 15.3444 14 15.2725ZM18.125 19H10.625V18.25H18.125V19Z" fill="white"/>
<path d="M53.8295 18H48.9908V4.90909H53.8232C55.157 4.90909 56.3054 5.17116 57.2685 5.69531C58.2358 6.2152 58.9815 6.9652 59.5057 7.94531C60.0298 8.92116 60.2919 10.0888 60.2919 11.4482C60.2919 12.8118 60.0298 13.9837 59.5057 14.9638C58.9858 15.9439 58.2422 16.696 57.2749 17.2202C56.3075 17.7401 55.1591 18 53.8295 18ZM52.1548 15.3026H53.7081C54.4411 15.3026 55.0611 15.179 55.5682 14.9318C56.0795 14.6804 56.4652 14.2734 56.7251 13.7109C56.9893 13.1442 57.1214 12.3899 57.1214 11.4482C57.1214 10.5064 56.9893 9.75639 56.7251 9.19815C56.4609 8.63565 56.071 8.23082 55.5554 7.98366C55.044 7.73224 54.4134 7.60653 53.6634 7.60653H52.1548V15.3026ZM62.1392 18V8.18182H65.2649V18H62.1392ZM63.7053 7.03764C63.2663 7.03764 62.8892 6.89276 62.5739 6.60298C62.2585 6.30895 62.1009 5.95526 62.1009 5.5419C62.1009 5.13281 62.2585 4.78338 62.5739 4.49361C62.8892 4.19957 63.2663 4.05256 63.7053 4.05256C64.1484 4.05256 64.5256 4.19957 64.8366 4.49361C65.152 4.78338 65.3097 5.13281 65.3097 5.5419C65.3097 5.95526 65.152 6.30895 64.8366 6.60298C64.5256 6.89276 64.1484 7.03764 63.7053 7.03764ZM75.8262 11.1797L72.9561 11.2564C72.9263 11.0518 72.8453 10.8707 72.7132 10.7131C72.5811 10.5511 72.4086 10.4254 72.1955 10.3359C71.9867 10.2422 71.7438 10.1953 71.4668 10.1953C71.1046 10.1953 70.7956 10.2678 70.54 10.4126C70.2885 10.5575 70.165 10.7536 70.1692 11.0007C70.165 11.1925 70.2417 11.3587 70.3993 11.4993C70.5613 11.6399 70.8489 11.7528 71.2623 11.8381L73.1543 12.196C74.1344 12.3835 74.8631 12.6946 75.3404 13.1293C75.8219 13.5639 76.0648 14.1392 76.0691 14.8551C76.0648 15.5284 75.8645 16.1143 75.4682 16.6129C75.0762 17.1115 74.5392 17.4993 73.8574 17.7763C73.1756 18.049 72.3958 18.1854 71.5179 18.1854C70.1159 18.1854 69.0101 17.8977 68.2005 17.3224C67.3951 16.7429 66.9348 15.9673 66.8198 14.9957L69.9071 14.919C69.9753 15.277 70.1522 15.5497 70.4377 15.7372C70.7232 15.9247 71.0875 16.0185 71.5307 16.0185C71.9313 16.0185 72.2573 15.9439 72.5087 15.7947C72.7601 15.6456 72.888 15.4474 72.8922 15.2003C72.888 14.9787 72.79 14.8018 72.5982 14.6697C72.4064 14.5334 72.106 14.4268 71.6969 14.3501L69.9838 14.0241C68.9995 13.8452 68.2665 13.5149 67.785 13.0334C67.3034 12.5476 67.0648 11.9297 67.0691 11.1797C67.0648 10.5234 67.2395 9.96307 67.5932 9.49858C67.9469 9.02983 68.4498 8.67188 69.1017 8.42472C69.7537 8.17756 70.5229 8.05398 71.4093 8.05398C72.7388 8.05398 73.7871 8.3331 74.5542 8.89134C75.3212 9.44531 75.7452 10.2081 75.8262 11.1797ZM77.608 21.6818V8.18182H80.7017V9.86293H80.7976C80.9254 9.56463 81.1065 9.27699 81.3409 9C81.5795 8.72301 81.8821 8.49716 82.2486 8.32244C82.6193 8.14347 83.0625 8.05398 83.5781 8.05398C84.2599 8.05398 84.897 8.23295 85.4893 8.59091C86.0859 8.94886 86.5675 9.50071 86.9339 10.2464C87.3004 10.9922 87.4837 11.9425 87.4837 13.0973C87.4837 14.2095 87.3068 15.1406 86.9531 15.8906C86.6037 16.6406 86.1307 17.2031 85.5341 17.5781C84.9418 17.9531 84.2834 18.1406 83.5589 18.1406C83.0646 18.1406 82.6364 18.0597 82.2741 17.8977C81.9119 17.7358 81.6072 17.5227 81.3601 17.2585C81.1172 16.9943 80.9297 16.7109 80.7976 16.4084H80.7337V21.6818H77.608ZM80.6697 13.0909C80.6697 13.6193 80.7401 14.0795 80.8807 14.4716C81.0256 14.8636 81.2322 15.1683 81.5007 15.3857C81.7734 15.5987 82.0994 15.7053 82.4787 15.7053C82.8622 15.7053 83.1882 15.5987 83.4567 15.3857C83.7251 15.1683 83.9276 14.8636 84.0639 14.4716C84.2045 14.0795 84.2749 13.6193 84.2749 13.0909C84.2749 12.5625 84.2045 12.1044 84.0639 11.7166C83.9276 11.3288 83.7251 11.0284 83.4567 10.8153C83.1925 10.6023 82.8665 10.4957 82.4787 10.4957C82.0952 10.4957 81.7692 10.6001 81.5007 10.8089C81.2322 11.0178 81.0256 11.3161 80.8807 11.7038C80.7401 12.0916 80.6697 12.554 80.6697 13.0909ZM91.8894 18.1662C91.263 18.1662 90.7069 18.0618 90.2211 17.853C89.7395 17.6399 89.3581 17.3203 89.0769 16.8942C88.7999 16.4638 88.6614 15.9247 88.6614 15.277C88.6614 14.7315 88.7573 14.2713 88.949 13.8963C89.1408 13.5213 89.405 13.2166 89.7417 12.9822C90.0783 12.7479 90.4661 12.571 90.905 12.4517C91.3439 12.3281 91.8127 12.245 92.3113 12.2024C92.8695 12.1513 93.3191 12.098 93.66 12.0426C94.0009 11.983 94.248 11.8999 94.4015 11.7933C94.5591 11.6825 94.638 11.527 94.638 11.3267V11.2947C94.638 10.9666 94.525 10.7131 94.2992 10.5341C94.0733 10.3551 93.7686 10.2656 93.3851 10.2656C92.9718 10.2656 92.6394 10.3551 92.388 10.5341C92.1365 10.7131 91.9767 10.9602 91.9086 11.2756L89.0257 11.1733C89.111 10.5767 89.3304 10.044 89.6841 9.57528C90.0421 9.10227 90.5321 8.73153 91.1543 8.46307C91.7807 8.19034 92.5328 8.05398 93.4107 8.05398C94.0371 8.05398 94.6145 8.12855 95.1429 8.2777C95.6713 8.42258 96.1316 8.63565 96.5236 8.9169C96.9157 9.19389 97.2182 9.5348 97.4313 9.93963C97.6486 10.3445 97.7573 10.8068 97.7573 11.3267V18H94.8169V16.6321H94.7402C94.5655 16.9645 94.3418 17.2457 94.0691 17.4759C93.8006 17.706 93.4831 17.8786 93.1167 17.9936C92.7544 18.1087 92.3453 18.1662 91.8894 18.1662ZM92.8546 16.1207C93.1912 16.1207 93.4938 16.0526 93.7623 15.9162C94.035 15.7798 94.2523 15.5923 94.4142 15.3537C94.5762 15.1108 94.6571 14.8295 94.6571 14.5099V13.5767C94.5676 13.6236 94.459 13.6662 94.3311 13.7045C94.2076 13.7429 94.0712 13.7791 93.9221 13.8132C93.7729 13.8473 93.6195 13.8771 93.4618 13.9027C93.3042 13.9283 93.1529 13.9517 93.008 13.973C92.714 14.0199 92.4625 14.0923 92.2537 14.1903C92.0492 14.2884 91.8915 14.4162 91.7807 14.5739C91.6742 14.7273 91.6209 14.9105 91.6209 15.1236C91.6209 15.4474 91.736 15.6946 91.9661 15.8651C92.2005 16.0355 92.4966 16.1207 92.8546 16.1207ZM105.21 8.18182V10.483H99.0165V8.18182H105.21ZM100.314 5.82955H103.44V14.9126C103.44 15.1044 103.47 15.2599 103.529 15.3793C103.593 15.4943 103.685 15.5774 103.804 15.6286C103.923 15.6754 104.066 15.6989 104.232 15.6989C104.352 15.6989 104.477 15.6882 104.61 15.6669C104.746 15.6413 104.848 15.62 104.916 15.603L105.389 17.8594C105.24 17.902 105.029 17.9553 104.757 18.0192C104.488 18.0831 104.166 18.1236 103.791 18.1406C103.058 18.1747 102.43 18.0895 101.906 17.8849C101.386 17.6761 100.987 17.3523 100.71 16.9134C100.438 16.4744 100.306 15.9226 100.314 15.2578V5.82955ZM111.283 18.1854C110.247 18.1854 109.359 17.9723 108.617 17.5462C107.88 17.12 107.313 16.5277 106.917 15.7692C106.521 15.0064 106.323 14.1243 106.323 13.1229C106.323 12.1172 106.521 11.2351 106.917 10.4766C107.318 9.71378 107.887 9.11932 108.624 8.69318C109.365 8.26705 110.249 8.05398 111.276 8.05398C112.184 8.05398 112.975 8.21804 113.648 8.54616C114.325 8.87429 114.854 9.33878 115.233 9.93963C115.617 10.5362 115.819 11.2372 115.84 12.0426H112.919C112.86 11.5398 112.689 11.1456 112.408 10.8601C112.131 10.5746 111.769 10.4318 111.321 10.4318C110.959 10.4318 110.642 10.5341 110.369 10.7386C110.096 10.9389 109.883 11.2372 109.73 11.6335C109.58 12.0256 109.506 12.5114 109.506 13.0909C109.506 13.6705 109.58 14.1605 109.73 14.5611C109.883 14.9574 110.096 15.2578 110.369 15.4624C110.642 15.6626 110.959 15.7628 111.321 15.7628C111.611 15.7628 111.867 15.701 112.088 15.5774C112.314 15.4538 112.499 15.2727 112.644 15.0341C112.789 14.7912 112.881 14.4972 112.919 14.152H115.84C115.811 14.9616 115.608 15.669 115.233 16.2741C114.862 16.8793 114.34 17.3501 113.667 17.6868C112.998 18.0192 112.203 18.1854 111.283 18.1854ZM120.566 12.4006V18H117.44V4.90909H120.463V9.98438H120.572C120.794 9.37926 121.156 8.90625 121.659 8.56534C122.166 8.22443 122.786 8.05398 123.519 8.05398C124.209 8.05398 124.81 8.20739 125.321 8.5142C125.833 8.81676 126.229 9.24503 126.51 9.79901C126.796 10.353 126.936 11.0007 126.932 11.7422V18H123.806V12.3558C123.811 11.8104 123.674 11.3842 123.397 11.0774C123.12 10.7706 122.73 10.6172 122.228 10.6172C121.9 10.6172 121.61 10.6896 121.358 10.8345C121.111 10.9751 120.917 11.1776 120.777 11.4418C120.64 11.706 120.57 12.0256 120.566 12.4006ZM48.9908 40V26.9091H54.4496C55.4297 26.9091 56.25 27.0476 56.9105 27.3246C57.5753 27.6016 58.0739 27.9893 58.4062 28.4879C58.7429 28.9865 58.9112 29.5639 58.9112 30.2202C58.9112 30.7188 58.8068 31.1641 58.598 31.5561C58.3892 31.9439 58.1016 32.2656 57.7351 32.5213C57.3686 32.777 56.9446 32.956 56.4631 33.0582V33.1861C56.9915 33.2116 57.4794 33.3544 57.9268 33.6143C58.3786 33.8743 58.7408 34.2365 59.0135 34.701C59.2862 35.1612 59.4226 35.7067 59.4226 36.3374C59.4226 37.0405 59.2436 37.669 58.8857 38.223C58.5277 38.7727 58.0099 39.2074 57.3324 39.527C56.6548 39.8423 55.8324 40 54.8651 40H48.9908ZM52.1548 37.4496H54.1108C54.7969 37.4496 55.3018 37.3196 55.6257 37.0597C55.9538 36.7997 56.1179 36.4375 56.1179 35.973C56.1179 35.6364 56.0391 35.3466 55.8814 35.1037C55.7237 34.8565 55.5 34.6669 55.2102 34.5348C54.9205 34.3984 54.5732 34.3303 54.1683 34.3303H52.1548V37.4496ZM52.1548 32.2912H53.9062C54.2514 32.2912 54.5582 32.2337 54.8267 32.1186C55.0952 32.0036 55.304 31.8374 55.4531 31.62C55.6065 31.4027 55.6832 31.1406 55.6832 30.8338C55.6832 30.3949 55.5277 30.0497 55.2166 29.7983C54.9055 29.5469 54.4858 29.4212 53.9574 29.4212H52.1548V32.2912ZM67.2784 35.7621V30.1818H70.3977V40H67.419V38.1719H67.3168C67.0994 38.7727 66.7287 39.25 66.2045 39.6037C65.6847 39.9531 65.0561 40.1278 64.3189 40.1278C63.6499 40.1278 63.0618 39.9744 62.5547 39.6676C62.0476 39.3608 61.6534 38.9325 61.3722 38.3828C61.0909 37.8288 60.9482 37.1811 60.9439 36.4396V30.1818H64.0696V35.826C64.0739 36.3587 64.2145 36.7784 64.4915 37.0852C64.7685 37.392 65.1456 37.5455 65.6229 37.5455C65.9339 37.5455 66.2131 37.4773 66.4602 37.3409C66.7116 37.2003 66.9098 36.9979 67.0547 36.7337C67.2038 36.4652 67.2784 36.1413 67.2784 35.7621ZM75.9732 40.1406C75.2488 40.1406 74.5904 39.9531 73.998 39.5781C73.4057 39.2031 72.9327 38.6406 72.579 37.8906C72.2253 37.1406 72.0485 36.2095 72.0485 35.0973C72.0485 33.9425 72.2317 32.9922 72.5982 32.2464C72.9647 31.5007 73.4441 30.9489 74.0364 30.5909C74.633 30.233 75.2743 30.054 75.9604 30.054C76.476 30.054 76.9171 30.1435 77.2836 30.3224C77.65 30.4972 77.9526 30.723 78.1912 31C78.4299 31.277 78.611 31.5646 78.7346 31.8629H78.7985V26.9091H81.9242V40H78.8304V38.4084H78.7346C78.6025 38.7109 78.415 38.9943 78.1721 39.2585C77.9292 39.5227 77.6245 39.7358 77.258 39.8977C76.8958 40.0597 76.4675 40.1406 75.9732 40.1406ZM77.0598 37.7053C77.4391 37.7053 77.763 37.5987 78.0314 37.3857C78.2999 37.1683 78.5066 36.8636 78.6515 36.4716C78.7963 36.0795 78.8688 35.6193 78.8688 35.0909C78.8688 34.554 78.7963 34.0916 78.6515 33.7038C78.5108 33.3161 78.3042 33.0178 78.0314 32.8089C77.763 32.6001 77.4391 32.4957 77.0598 32.4957C76.6721 32.4957 76.3439 32.6023 76.0755 32.8153C75.807 33.0284 75.6025 33.3288 75.4618 33.7166C75.3255 34.1044 75.2573 34.5625 75.2573 35.0909C75.2573 35.6193 75.3276 36.0795 75.4682 36.4716C75.6088 36.8636 75.8113 37.1683 76.0755 37.3857C76.3439 37.5987 76.6721 37.7053 77.0598 37.7053ZM87.4869 40.1406C86.7624 40.1406 86.104 39.9531 85.5117 39.5781C84.9194 39.2031 84.4464 38.6406 84.0927 37.8906C83.739 37.1406 83.5621 36.2095 83.5621 35.0973C83.5621 33.9425 83.7454 32.9922 84.1119 32.2464C84.4783 31.5007 84.9577 30.9489 85.5501 30.5909C86.1467 30.233 86.788 30.054 87.4741 30.054C87.9897 30.054 88.4308 30.1435 88.7972 30.3224C89.1637 30.4972 89.4663 30.723 89.7049 31C89.9435 31.277 90.1246 31.5646 90.2482 31.8629H90.3121V26.9091H93.4379V40H90.3441V38.4084H90.2482C90.1161 38.7109 89.9286 38.9943 89.6857 39.2585C89.4428 39.5227 89.1381 39.7358 88.7717 39.8977C88.4094 40.0597 87.9812 40.1406 87.4869 40.1406ZM88.5735 37.7053C88.9528 37.7053 89.2766 37.5987 89.5451 37.3857C89.8136 37.1683 90.0202 36.8636 90.1651 36.4716C90.31 36.0795 90.3825 35.6193 90.3825 35.0909C90.3825 34.554 90.31 34.0916 90.1651 33.7038C90.0245 33.3161 89.8178 33.0178 89.5451 32.8089C89.2766 32.6001 88.9528 32.4957 88.5735 32.4957C88.1857 32.4957 87.8576 32.6023 87.5891 32.8153C87.3207 33.0284 87.1161 33.3288 86.9755 33.7166C86.8391 34.1044 86.771 34.5625 86.771 35.0909C86.771 35.6193 86.8413 36.0795 86.9819 36.4716C87.1225 36.8636 87.3249 37.1683 87.5891 37.3857C87.8576 37.5987 88.1857 37.7053 88.5735 37.7053ZM97.3258 43.6818C96.9508 43.6818 96.5971 43.652 96.2647 43.5923C95.9324 43.5369 95.6468 43.4624 95.4082 43.3686L96.0985 41.0994C96.4054 41.2017 96.6824 41.2614 96.9295 41.2784C97.1809 41.2955 97.3961 41.255 97.5751 41.157C97.7583 41.0632 97.899 40.8949 97.997 40.652L98.1184 40.358L94.6284 30.1818H97.9011L99.7101 37.1875H99.8123L101.647 30.1818H104.939L101.238 40.9396C101.059 41.4766 100.805 41.9496 100.477 42.3587C100.153 42.772 99.7335 43.0959 99.2179 43.3303C98.7065 43.5646 98.0758 43.6818 97.3258 43.6818Z" fill="#E02B45"/>
<defs>
<linearGradient id="paint0_linear_110_2004" x1="23.75" y1="22" x2="36.25" y2="46.0625" gradientUnits="userSpaceOnUse">
<stop stop-color="#E02B45"/>
<stop offset="1" stop-color="#FCC134"/>
</linearGradient>
</defs>
</svg>
